<?xml version="1.0" encoding="UTF-8"?>
<svg width="75px" height="126px" viewBox="0 0 75 126" version="1.1" xmlns="http://www.w3.org/2000/svg" xmlns:xlink="http://www.w3.org/1999/xlink">
    <title>King</title>
    <defs>
        <linearGradient x1="48.6998902%" y1="51.6289862%" x2="72.1611416%" y2="-62.5231097%" id="linearGradient-1">
            <stop stop-color="#CC5697" offset="0%"></stop>
            <stop stop-color="#8E3979" offset="100%"></stop>
        </linearGradient>
        <linearGradient x1="49.999272%" y1="78.8707212%" x2="49.999272%" y2="-64.5047576%" id="linearGradient-2">
            <stop stop-color="#FFC3B0" offset="0.51%"></stop>
            <stop stop-color="#E8897B" offset="100%"></stop>
        </linearGradient>
    </defs>
    <g id="Page-1" stroke="none" stroke-width="1" fill="none" fill-rule="evenodd">
        <g id="30-Fantasy-and-Role-Play-Game-Icons" transform="translate(-200.000000, -157.000000)" fill-rule="nonzero">
            <g id="King" transform="translate(200.000000, 157.000000)">
                <path d="M6,78.05322 C6,78.05322 1.06773649,80.29602 1.20557432,84.627648 C1.24763514,85.953672 1.82964527,87.201828 2.70810811,88.2 C3.778125,89.415648 5.70734797,91.621908 7.53724662,93.785832 C9.7910473,96.450732 11.5910473,99.473976 12.7798986,102.749472 C15.4771115,110.178936 24.0215372,125.9811 47.9118243,125.98488 C49.7267736,125.98488 51.5234797,125.605116 53.1828547,124.873812 C60.0131757,121.861908 76.6619088,111.599964 73.4581926,83.98404 C73.4581926,83.98404 66.705152,83.569248 60.5308277,98.680428 C59.3690878,101.523492 56.7580236,103.555116 53.6837838,103.81896 C47.1131757,104.382684 35.5702703,102.43044 24.9990709,85.845312 C22.7148649,82.262124 19.4014358,79.39764 15.3884291,77.957964 C12.3511824,76.86882 8.87077703,76.389012 6,78.05322 Z" id="Path" fill="#59E1FF"></path>
                <path d="M73.4579392,83.984292 C73.4579392,83.984292 66.7043919,83.5695 60.5303209,98.681688 C59.3688345,101.524248 56.7585304,103.554864 53.6850507,103.81896 C48.5936655,104.25618 40.5154561,103.177368 32.2178209,94.954356 L30.2731419,95.951772 C30.2731419,95.951772 38.9011824,109.140192 50.2464527,113.708196 C50.9389358,113.986908 51.7038851,114.031008 52.432348,113.864436 C54.1119932,113.480388 57.3258446,112.483224 60.4522804,110.061756 C61.6697635,109.118772 63.4216216,110.244456 63.0899493,111.743352 C62.5299831,114.274944 61.6163007,117.479376 60.1454392,120.745044 C67.4559122,115.18164 75.8110642,104.26752 73.4579392,83.984292 Z" id="Path" fill="#30A7EA"></path>
                <path d="M31.6459459,64.400868 C31.6459459,64.400868 22.7728885,59.202864 16.33125,69.598872 C16.33125,69.598872 4.33809122,67.191516 0.346875,77.577696 C-0.0174831081,78.525468 0.425929054,79.595208 1.32947635,80.065944 L1.32947635,80.065944 C1.94239865,80.385228 2.67162162,80.377164 3.27592905,80.041752 C5.18969595,78.979824 9.03851351,76.24764 13.0494932,79.390584 C13.0494932,79.390584 19.7356419,83.894832 25.0679899,90.78804 C27.1636824,93.497544 29.3880912,96.104736 31.8871622,98.45136 C36.4206081,102.708396 43.4090372,108.253152 50.4924831,109.932228 C51.0334459,110.060244 51.5954392,110.015892 52.1179054,109.827396 C54.6808277,108.9018 62.2674831,105.15078 66.517652,92.235276 C67.1374155,90.35208 68.1813345,88.608996 69.6402872,87.259536 C70.6672297,86.309496 71.9640203,85.466556 73.4736486,85.221864 C74.371875,85.07646 74.969848,84.216888 74.7255912,83.344716 C74.2505068,81.649008 73.0555743,79.29054 70.0545608,78.544368 C70.0545608,78.544368 69.7140203,72.379188 63.9283784,70.082712 L31.6459459,64.400868 Z" id="Path" fill="url(#linearGradient-1)"></path>
                <path d="M66.6068412,91.961352 C66.9615709,90.85986 67.4592061,89.804484 68.1661318,88.886196 C69.2678209,87.454836 71.1096284,85.604904 73.4733953,85.221864 C74.371875,85.076208 74.9695946,84.216888 74.7253378,83.344716 C74.2502534,81.649008 73.0555743,79.29054 70.0543074,78.544368 C70.0543074,78.544368 69.7135135,72.379188 63.928125,70.082712 L58.6244088,69.149052 L53.6455236,78.786288 C58.1328547,79.610076 59.0559122,82.744704 59.1668919,84.771036 C59.2251689,85.844052 59.7846284,86.808204 60.6727196,87.42006 C65.6584459,90.855576 63.628125,97.974324 62.6878378,100.531368 C64.1298142,98.245224 65.4889358,95.431644 66.6068412,91.961352 Z" id="Path" fill="#A03774"></path>
                <path d="M40.9363176,78.05322 C40.9363176,78.05322 48.6646115,83.13984 49.0201014,90.816516 L51.2440034,90.816516 C51.2440034,90.816516 50.4884291,83.505996 55.901098,79.023672 L55.901098,78.052968 L40.9363176,78.052968 L40.9363176,78.05322 Z" id="Path" fill="#A03774"></path>
                <path d="M25.0157939,28.360584 C25.0157939,28.360584 18.8787162,30.627576 18.8787162,37.414692 L18.8787162,49.779324 C18.8787162,49.779324 18.6668919,53.041716 16.2334459,53.252136 C16.2334459,53.252136 15.082348,53.415684 14.1129223,52.774344 C13.1290541,52.12368 11.8246622,52.753932 11.7119088,53.923716 C11.6004223,55.082412 11.7169764,56.47446 12.3511824,57.99906 C12.9159628,59.356836 13.8418074,60.542496 14.9749155,61.48548 C17.6880912,63.743652 23.8750845,67.132296 33.6780405,62.82864 L33.6780405,28.360584 L25.0157939,28.360584 Z" id="Path" fill="#E6E6F8"></path>
                <path d="M64.1039696,52.52436 L62.9333615,52.52436 L62.9333615,42.913584 L64.1039696,42.913584 C66.7722973,42.913584 68.9356419,45.06516 68.9356419,47.718972 L68.9356419,47.718972 C68.9356419,50.372784 66.7722973,52.52436 64.1039696,52.52436 Z" id="Path" fill="#C66760"></path>
                <rect id="Rectangle" fill="url(#linearGradient-2)" x="32.6059966" y="28.360584" width="31.3226351" height="38.745756"></rect>
                <path d="M38.5596284,32.625684 L53.7438345,32.625684 C55.877027,32.625684 57.6058277,34.345584 57.6058277,36.46692 L57.6058277,67.10634 L63.9286318,67.10634 L63.9286318,28.360584 L38.5596284,28.360584 L38.5596284,32.625684 Z" id="Path" fill="#E8897B"></path>
                <ellipse id="Oval" fill="#333345" cx="47.6009291" cy="38.826144" rx="1.4191723" ry="1.411452"></ellipse>
                <ellipse id="Oval" fill="#333345" cx="59.8461993" cy="38.826144" rx="1.4191723" ry="1.411452"></ellipse>
                <path d="M28.1901182,49.989744 C28.6132601,64.085112 15.5650338,61.942356 15.553125,61.94034 C18.5146115,64.153908 24.5158784,66.850812 33.6782939,62.828388 L33.6782939,49.989744 L28.1901182,49.989744 Z" id="Path" fill="#B3B3C5"></path>
                <path d="M39.8257601,28.360584 C39.8257601,28.360584 41.3809966,37.009224 34.8273649,40.237596 L34.8273649,55.71972 C34.8273649,57.918924 35.7625845,60.062184 37.5081081,61.412148 C38.5358108,62.206956 39.8984797,62.896176 41.6619932,63.142884 C42.4266892,63.249984 43.1356419,62.735148 43.3315034,61.992504 C43.9672297,59.578848 46.1614865,54.402264 53.4065878,53.213076 C55.8293919,52.81542 58.3380912,52.976448 60.6195101,53.879112 C63.4913007,55.01538 66.8723818,57.558564 67.0135135,63.239652 L67.0135135,63.239652 C67.0135135,72.513504 59.4547297,80.031168 50.1304054,80.031168 L47.1567568,80.031168 C37.8324324,80.031168 30.2736486,72.513504 30.2736486,63.239652 L30.2736486,28.360584 L39.8257601,28.360584 Z" id="Path" fill="#E6E6F8"></path>
                <path d="M29.1027872,52.52436 L30.2733953,52.52436 L30.2733953,42.913584 L29.1027872,42.913584 C26.4344595,42.913584 24.2711149,45.06516 24.2711149,47.718972 L24.2711149,47.718972 C24.2711149,50.372784 26.4344595,52.52436 29.1027872,52.52436 Z" id="Path" fill="#E8897B"></path>
                <path d="M58.1837838,48.971916 L55.3365709,48.971916 C54.4026182,48.971916 53.6460304,48.21894 53.6460304,47.290572 L53.6460304,47.290572 C53.6460304,46.361952 54.4026182,45.609228 55.3365709,45.609228 L58.1837838,45.609228 C59.1174831,45.609228 59.8743243,46.361952 59.8743243,47.290572 L59.8743243,47.290572 C59.8743243,48.219192 59.1172297,48.971916 58.1837838,48.971916 Z" id="Path" fill="#E8897B"></path>
                <path d="M67.0132601,63.239652 C66.871875,57.558312 63.4910473,55.01538 60.6192568,53.879112 C59.6488176,53.495064 58.6360642,53.252892 57.6070946,53.123112 C57.6390203,53.188632 64.6530405,67.728528 58.0755912,78.05322 C63.3929899,75.226536 67.0132601,69.65532 67.0132601,63.239652 Z" id="Path" fill="#B3B3C5"></path>
                <path d="M35.8768581,17.370864 C33.3641047,16.161264 32.3809966,13.108536 33.440625,10.5399 C33.6909628,9.932832 33.9851351,9.438156 34.2433277,9.067716 C34.5899493,8.569764 34.5993243,7.915824 34.244848,7.423416 C33.2389358,6.026328 32.3181588,4.428396 31.6880068,3.26214 C31.3231419,2.58678 30.3491554,2.58678 29.9842905,3.26214 C29.3538851,4.428396 28.4333615,6.026328 27.4271959,7.423416 C27.0727196,7.915824 27.082348,8.569764 27.4289696,9.067716 C27.6871622,9.438156 27.9813345,9.932832 28.2316723,10.5399 C29.2910473,13.108536 28.3081926,16.161264 25.7954392,17.370864 C24.8903716,17.806572 23.0130912,18.188352 21.4923142,18.188352 L22.1956926,23.445828 L30.8361486,23.445828 L39.4768581,23.445828 L40.3064189,17.811612 C38.7851351,17.811612 36.7819257,17.80632 35.8768581,17.370864 Z" id="Path" fill="#AD6D2A"></path>
                <path d="M20.1235642,32.625684 L33.6782939,32.625684 L33.6782939,28.360584 L25.0157939,28.360584 C25.0157939,28.360584 21.9162162,29.519028 20.1235642,32.625684 Z" id="Path" fill="#B3B3C5"></path>
                <path d="M39.845777,32.625684 C40.1592061,30.270744 39.8257601,28.360584 39.8257601,28.360584 L30.2733953,28.360584 L30.2733953,32.625684 L39.845777,32.625684 Z" id="Path" fill="#B3B3C5"></path>
                <path d="M60.6258446,17.370864 C58.1128378,16.161264 57.1299831,13.108536 58.1896115,10.5399 C58.4396959,9.932832 58.7338682,9.438156 58.9920608,9.067716 C59.3386824,8.569764 59.3483108,7.915824 58.9938345,7.423416 C57.9876689,6.026328 57.0671453,4.428396 56.4367399,3.26214 C56.0721284,2.58678 55.0981419,2.58678 54.7330236,3.26214 C54.1028716,4.428396 53.1820946,6.026328 52.1759291,7.423416 C51.8214527,7.915824 51.8313345,8.569764 52.1779561,9.067716 C52.4361486,9.438156 52.7300676,9.932832 52.9804054,10.5399 C54.0400338,13.108536 53.0569257,16.161264 50.5441723,17.370864 C49.6391047,17.806572 47.7620777,18.188352 46.2413007,18.188352 L46.9444257,23.445828 L55.5851351,23.445828 L64.2255912,23.445828 L65.0554054,17.811612 C63.5341216,17.811612 61.5306588,17.80632 60.6258446,17.370864 Z" id="Path" fill="#AD6D2A"></path>
                <path d="M63.1596284,7.145712 C62.6470439,7.858872 62.6384291,8.802612 63.1408784,9.52308 C63.5260135,10.075716 63.9681588,10.822392 64.3365709,11.7432 C65.782348,15.356124 64.2529561,19.805688 60.714527,21.46032 C59.4306588,22.060836 57.7768581,22.457988 55.6482264,22.457988 C53.4699324,22.457988 51.7890203,22.041936 50.4927365,21.417984 C46.8942568,19.685484 45.4864865,15.313788 47.0037162,11.63484 C47.3619932,10.765692 47.7836149,10.057068 48.1530405,9.526356 C48.6547297,8.805384 48.6527027,7.863408 48.1398649,7.150248 C46.4982264,4.866372 45.016723,2.213064 44.1309122,0.532476 C43.7668074,-0.157752 42.7804054,-0.157752 42.4163007,0.532476 C41.53125,2.2113 40.0515203,4.861332 38.4116554,7.143696 C37.8980574,7.85862 37.8914696,8.804628 38.3946791,9.527112 C38.7780405,10.077984 39.217652,10.820628 39.5845439,11.73564 C41.0586993,15.412068 39.6278716,19.704384 36.0428209,21.423276 C34.7483108,22.044204 33.0706926,22.457736 30.8989865,22.457736 C28.7878378,22.457736 27.1441723,22.066884 25.8646115,21.474936 C22.3041385,19.827108 20.7585304,15.371244 22.2106419,11.742444 C22.5790541,10.821888 23.0209459,10.075464 23.4063345,9.522828 C23.908277,8.80236 23.9001689,7.85862 23.3878378,7.14546 C22.2435811,5.553576 21.1776182,3.782772 20.3371622,2.287404 C19.8506757,1.421784 18.5247466,1.772568 18.5247466,2.763936 L18.5247466,27.669348 C18.5247466,29.021832 19.6271959,30.118284 20.9870777,30.118284 L30.8992399,30.118284 L43.2734797,30.118284 L55.647973,30.118284 L65.5601351,30.118284 C66.9200169,30.118284 68.0222128,29.021832 68.0222128,27.669348 L68.0222128,2.76444 C68.0222128,1.77282 66.6965372,1.422288 66.2097973,2.287656 C65.3690878,3.783276 64.303125,5.55408 63.1596284,7.145712 Z" id="Path" fill="#FFCA95"></path>
                <path d="M65.5601351,30.118788 C66.9200169,30.118788 68.0222128,29.022336 68.0222128,27.669852 L68.0222128,2.76444 C68.0222128,1.77282 66.6962838,1.42254 66.2097973,2.287908 C65.3693412,3.783528 64.3033784,5.55408 63.1596284,7.145964 C62.6470439,7.859124 62.6384291,8.802864 63.1408784,9.523332 C63.5260135,10.075968 63.9681588,10.822644 64.3365709,11.743452 C65.782348,15.356376 64.2529561,19.80594 60.714527,21.460572 C59.4306588,22.061088 57.7768581,22.45824 55.6482264,22.45824 C53.4699324,22.45824 51.7890203,22.042188 50.4927365,21.418236 C46.8942568,19.685736 45.4864865,15.31404 47.0037162,11.635092 C47.3619932,10.765944 47.7836149,10.05732 48.1530405,9.526608 C48.6547297,8.805636 48.6527027,7.86366 48.1398649,7.150248 C46.4982264,4.866372 45.016723,2.213064 44.1306588,0.532728 C43.9487331,0.187488 43.6112331,0.014868 43.2734797,0.014868 L43.2734797,26.476632 C43.2734797,26.476632 43.1472973,30.118788 47.4405405,30.118788 L55.647973,30.118788 L65.5601351,30.118788 L65.5601351,30.118788 Z" id="Path" fill="#FBB04D"></path>
                <ellipse id="Oval" fill="#FBB04D" cx="49.9996622" cy="95.450292" rx="5.34805743" ry="6.026076"></ellipse>
                <ellipse id="Oval" fill="#FFCA95" transform="translate(48.265478, 94.584474) rotate(9.950231) translate(-48.265478, -94.584474) " cx="48.2654779" cy="94.5844744" rx="1.69641896" ry="1.91282212"></ellipse>
            </g>
        </g>
    </g>
</svg>